<!-- Generated by IcoMoon.io -->
<svg version="1.1" xmlns="http://www.w3.org/2000/svg"  viewBox="0 0 36 32">
<title>icon-twitter</title>
<path  d="M35.556 4.976c-1.222 0.548-2.64 0.952-4.125 1.142l-0.076 0.008c1.511-0.907 2.646-2.309 3.193-3.977l0.015-0.051c-1.331 0.803-2.879 1.416-4.529 1.75l-0.093 0.016c-1.333-1.421-3.223-2.306-5.319-2.306-4.025 0-7.287 3.263-7.287 7.287 0 0.001 0 0.003 0 0.004v-0c0 0.576 0.048 1.132 0.169 1.66-6.060-0.295-11.422-3.2-15.026-7.623-0.625 1.056-0.994 2.326-0.996 3.683v0c0 2.524 1.298 4.763 3.236 6.059-1.214-0.033-2.344-0.362-3.33-0.916l0.036 0.019v0.080c0.005 3.515 2.486 6.449 5.792 7.152l0.048 0.009c-0.556 0.153-1.195 0.24-1.854 0.24-0.020 0-0.040-0-0.060-0l0.003 0c-0.468 0-0.939-0.027-1.38-0.124 0.944 2.887 3.623 5.010 6.811 5.079-2.46 1.936-5.603 3.106-9.019 3.106-0.007 0-0.014 0-0.021 0h0.001c-0.032 0-0.071 0-0.109 0-0.576 0-1.144-0.036-1.701-0.105l0.067 0.007c3.14 2.051 6.986 3.271 11.116 3.271 0.023 0 0.047-0 0.070-0h-0.004c13.413 0 20.747-11.111 20.747-20.741 0-0.324-0.011-0.635-0.027-0.942 1.443-1.042 2.657-2.297 3.62-3.734l0.033-0.052z"></path>
</svg>
