<!-- Generated by IcoMoon.io -->
<svg version="1.1" xmlns="http://www.w3.org/2000/svg" width="33" height="32" viewBox="0 0 33 32">
<title>icon-search</title>
<path fill="#0079ff" d="M14.145 0c7.8 0 14.144 6.328 14.144 14.107 0 3.479-1.269 6.667-3.369 9.129l6.816 6.783c0.199 0.208 0.322 0.491 0.322 0.802 0 0.641-0.519 1.16-1.16 1.16-0.309 0-0.591-0.121-0.799-0.319l0 0-6.824-6.791c-2.441 2.077-5.63 3.34-9.115 3.34-0.006 0-0.011 0-0.017 0h0.001c-7.8 0.001-14.145-6.328-14.145-14.105s6.347-14.107 14.145-14.107zM14.145 2.32c-6.521 0-11.827 5.287-11.827 11.787 0 6.499 5.305 11.787 11.827 11.787 0.003 0 0.007 0 0.012 0 3.223 0 6.144-1.291 8.274-3.384l-0.002 0.002 0.053-0.063c0.024-0.024 0.049-0.047 0.076-0.069l0.002-0.001c2.108-2.118 3.411-5.038 3.411-8.263 0-0.003 0-0.005 0-0.008v0c0-6.5-5.305-11.787-11.827-11.787z"></path>
</svg>
