<!-- Generated by IcoMoon.io -->
<svg version="1.1" xmlns="http://www.w3.org/2000/svg"  viewBox="0 0 32 32">
<title>icon-moon</title>
<path  d="M31.221 18.235c-0.077-0.019-0.165-0.029-0.255-0.029-0.259 0-0.498 0.088-0.688 0.236l0.003-0.002c-1.034 0.889-2.241 1.612-3.559 2.11l-0.083 0.027c-1.197 0.468-2.583 0.74-4.032 0.74-0.035 0-0.071-0-0.106-0l0.005 0c-0.001 0-0.002 0-0.004 0-3.325 0-6.334-1.351-8.508-3.534l-0-0c-2.174-2.188-3.518-5.204-3.518-8.534 0-0.005 0-0.009 0-0.014v0.001c0-1.397 0.246-2.752 0.656-3.984 0.462-1.359 1.13-2.534 1.978-3.554l-0.015 0.018c0.144-0.178 0.231-0.408 0.231-0.658 0-0.331-0.153-0.626-0.392-0.819l-0.002-0.002c-0.188-0.146-0.427-0.234-0.686-0.234-0.091 0-0.179 0.011-0.264 0.031l0.008-0.002c-3.477 0.944-6.506 3.040-8.674 5.834-2.069 2.698-3.315 6.122-3.315 9.837 0 0.009 0 0.018 0 0.026v-0.001c0 4.48 1.8 8.547 4.747 11.504 2.909 2.944 6.948 4.768 11.412 4.768 0.016 0 0.031-0 0.047-0h-0.002c3.765 0 7.243-1.315 10.026-3.493 2.809-2.233 4.844-5.331 5.705-8.888l0.023-0.111c0.029-0.090 0.046-0.193 0.046-0.3 0-0.474-0.332-0.872-0.776-0.972l-0.007-0.001z"></path>
</svg>


