<!-- Generated by IcoMoon.io -->
<svg version="1.1" xmlns="http://www.w3.org/2000/svg"  viewBox="0 0 22 32">
<title>icon-location</title>
<path  d="M20.475 5.48c-1.941-3.352-5.392-5.4-9.227-5.477-0.073-0.002-0.16-0.003-0.246-0.003s-0.173 0.001-0.259 0.003l0.013-0c-3.835 0.077-7.283 2.125-9.227 5.477-0.96 1.612-1.528 3.555-1.528 5.631 0 1.973 0.513 3.826 1.413 5.434l-0.029-0.056 7.946 14.542c0.349 0.608 0.974 0.97 1.672 0.97 0.699 0 1.325-0.362 1.674-0.97l0.011-0.019 7.936-14.523c0.87-1.55 1.382-3.403 1.382-5.375 0-2.077-0.568-4.021-1.558-5.685l0.028 0.051zM11.003 14.501c-2.483 0-4.501-2.019-4.501-4.501s2.018-4.499 4.499-4.499 4.502 2.018 4.502 4.499-2.021 4.501-4.502 4.501z"></path>
</svg>
