<!-- Generated by IcoMoon.io -->
<svg version="1.1" xmlns="http://www.w3.org/2000/svg"  viewBox="0 0 32 32">
<title>icon-website</title>
<path  d="M11.846 8.019c-3.768 3.899-2.946 10.371 1.371 13.237 0.142 0.096 0.331 0.077 0.453-0.043 0.909-0.888 1.678-1.749 2.352-2.842 0.031-0.050 0.050-0.112 0.050-0.177 0-0.131-0.074-0.245-0.182-0.302l-0.002-0.001c-0.714-0.415-1.287-1.003-1.672-1.708l-0.011-0.023c-0.294-0.561-0.466-1.225-0.466-1.929 0-0.339 0.040-0.668 0.115-0.984l-0.006 0.029c0.269-1.304 1.669-2.517 2.738-3.638l-0.006-0.003 4.006-4.088c0.746-0.76 1.785-1.232 2.933-1.232 1.134 0 2.16 0.459 2.903 1.201l-0-0c0.765 0.755 1.24 1.803 1.24 2.963 0 1.13-0.45 2.154-1.181 2.904l0.001-0.001-2.427 2.496c-0.074 0.076-0.12 0.181-0.12 0.296 0 0.050 0.009 0.099 0.025 0.144l-0.001-0.003c0.56 1.619 0.696 3.904 0.322 5.63-0.010 0.048 0.050 0.080 0.085 0.045l5.165-5.272c3.299-3.368 3.27-8.85-0.064-12.184-1.568-1.564-3.731-2.532-6.121-2.532-2.421 0-4.611 0.993-6.183 2.594l-5.315 5.424z"></path>
<path  d="M21.502 22c0.007-0.003 0.010-0.005 0.013-0.006l-0.004 0.002c1.054-1.926 1.261-4.138 0.768-6.293l-0.003 0.003-0.002-0.002c-0.55-2.085-1.799-3.819-3.475-4.979l-0.029-0.019c-0.071-0.044-0.157-0.069-0.248-0.069-0.107 0-0.206 0.035-0.286 0.094l0.001-0.001c-0.885 0.717-1.752 1.634-2.323 2.806-0.025 0.050-0.040 0.109-0.040 0.171 0 0.143 0.077 0.267 0.191 0.335l0.002 0.001c0.664 0.384 1.264 0.949 1.664 1.698h0.002c0.314 0.528 0.621 1.533 0.421 2.611-0.186 1.43-1.63 2.742-2.778 3.925-0.874 0.894-3.096 3.158-3.984 4.067-0.755 0.765-1.803 1.24-2.963 1.24-1.13 0-2.154-0.45-2.904-1.181l0.001 0.001c-0.766-0.755-1.24-1.804-1.24-2.963 0-1.129 0.45-2.154 1.18-2.903l-0.001 0.001 2.434-2.502c0.074-0.077 0.12-0.181 0.12-0.296 0-0.047-0.008-0.093-0.022-0.135l0.001 0.003c-0.541-1.658-0.688-3.891-0.347-5.616 0.010-0.048-0.050-0.078-0.085-0.043l-5.086 5.192c-3.333 3.402-3.306 8.941 0.064 12.309 3.4 3.333 8.912 3.277 12.245-0.125 1.157-1.296 6.114-5.885 6.712-7.323z"></path>
</svg>
