<!-- Generated by IcoMoon.io -->
<svg version="1.1" xmlns="http://www.w3.org/2000/svg"  viewBox="0 0 32 32">
<title>icon-company</title>
<path  d="M17.373 2.493l-14.653-2.226c-0.113-0.019-0.244-0.030-0.377-0.030-0.579 0-1.109 0.208-1.52 0.553l0.004-0.003c-0.503 0.435-0.821 1.073-0.827 1.785v28.095c0 0.733 0.6 1.333 1.333 1.333h4.334v-7c0-1.293 1.040-2.333 2.333-2.333h3.333c1.294 0 2.334 1.040 2.334 2.333v7h5.666v-27.2c0-0 0-0.001 0-0.002 0-1.157-0.842-2.118-1.946-2.304l-0.014-0.002zM7.333 19.667h-2c-0.552 0-1-0.448-1-1s0.448-1 1-1v0h2c0.552 0 1 0.448 1 1s-0.448 1-1 1v0zM7.333 15.667h-2c-0.552 0-1-0.448-1-1s0.448-1 1-1v0h2c0.552 0 1 0.448 1 1s-0.448 1-1 1v0zM7.333 11.667h-2c-0.552 0-1-0.448-1-1s0.448-1 1-1v0h2c0.552 0 1 0.448 1 1s-0.448 1-1 1v0zM7.333 7.667h-2c-0.552 0-1-0.448-1-1s0.448-1 1-1v0h2c0.552 0 1 0.448 1 1s-0.448 1-1 1v0zM14 19.667h-2c-0.552 0-1-0.448-1-1s0.448-1 1-1v0h2c0.552 0 1 0.448 1 1s-0.448 1-1 1v0zM14 15.667h-2c-0.552 0-1-0.448-1-1s0.448-1 1-1v0h2c0.552 0 1 0.448 1 1s-0.448 1-1 1v0zM14 11.667h-2c-0.552 0-1-0.448-1-1s0.448-1 1-1v0h2c0.552 0 1 0.448 1 1s-0.448 1-1 1v0zM14 7.667h-2c-0.552 0-1-0.448-1-1s0.448-1 1-1v0h2c0.552 0 1 0.448 1 1s-0.448 1-1 1v0zM30.16 14.456l-9.493-1.987v19.531h9c1.288-0.002 2.331-1.045 2.333-2.333v-12.931c0-1.101-0.752-2.038-1.84-2.28zM27 28h-2c-0.552 0-1-0.448-1-1s0.448-1 1-1v0h2c0.552 0 1 0.448 1 1s-0.448 1-1 1v0zM27 24h-2c-0.552 0-1-0.448-1-1s0.448-1 1-1v0h2c0.552 0 1 0.448 1 1s-0.448 1-1 1v0zM27 20h-2c-0.552 0-1-0.448-1-1s0.448-1 1-1v0h2c0.552 0 1 0.448 1 1s-0.448 1-1 1v0z"></path>
</svg>
